<?xml version="1.0" encoding="utf-8"?>
<!-- Generator: Adobe Illustrator 26.0.2, SVG Export Plug-In . SVG Version: 6.00 Build 0)  -->
<svg version="1.1" id="Layer_1" xmlns="http://www.w3.org/2000/svg" xmlns:xlink="http://www.w3.org/1999/xlink" x="0px" y="0px"
	 viewBox="0 0 700 700" style="enable-background:new 0 0 700 700;" xml:space="preserve">
<path d="M279.8,524.3l2.8-263.8l-44.8-25.4l2.6,201.9l0,0c-0.1,8.6-3.6,16.8-9.8,22.7c-8.2,8.2-19.3,12.9-30.9,13
	c-11.4,0.2-22.4-4.5-30.1-12.9c-7.8,8.5-18.9,13.2-30.5,12.9c-10,0.2-19.6-3.4-27.1-10c-7.5-6.6-12.2-15.8-13.2-25.7l2.8-263.8
	l-79.1-44.8h0c-9.2-4.1-16.3-11.8-19.5-21.3C-0.6,97.5,0.2,87,4.9,78.1c4.9-8.5,13.1-14.6,22.6-17s19.6-0.6,27.9,4.6l33.9,18.9
	l43.3,24.2c3.3-0.3,6.6-0.5,9.9-0.7h0c-9.4-4.8-17.2-12.1-22.7-21.1c-5.5-9-8.4-19.3-8.4-29.9c0-15.2,6-29.8,16.8-40.5
	C138.8,6,153.4,0,168.6,0c15.2,0,29.8,6,40.5,16.8c10.7,10.7,16.8,25.3,16.8,40.5c0,10.5-2.9,20.9-8.4,29.8
	c-5.5,9-13.4,16.3-22.7,21.1c3.5,0.2,7,0.4,10.6,0.7l43.6-24.4l33.6-18.8l0,0c10.9-6.7,24.3-7.4,35.9-2c9.7,5,16.4,14.3,18.2,25
	c8.5-2,17.4-2,25.9,0c2-10.6,8.9-19.7,18.6-24.6c11.4-5.4,24.9-4.8,35.7,1.8l34.2,19l43.1,24.1c3.7-0.3,7.3-0.6,11-0.8v0
	c-9.5-4.8-17.5-12.1-23-21.1c-5.6-9-8.5-19.5-8.5-30.1c0-15.2,6-29.8,16.8-40.5C500.8,6,515.4,0,530.6,0c15.2,0,29.8,6,40.5,16.8
	c10.7,10.7,16.8,25.3,16.8,40.5c0,10.6-3,21.1-8.6,30.1c-5.6,9.1-13.6,16.4-23.1,21.1c3.5,0.2,7,0.4,10.4,0.7l42.9-23.9l35.3-19.5v0
	c8.2-5.2,18.1-6.9,27.5-4.8c9.4,2.2,17.6,8.1,22.6,16.4c4.8,8.9,5.8,19.4,2.6,29c-3.2,9.6-10.2,17.5-19.4,21.7L599,173l3.2,263.7
	c-0.1,8.6-3.6,16.8-9.8,22.7c-8.4,8.5-19.8,13.3-31.8,13.3c-11.4,0.2-22.4-4.4-30.1-12.8c-7.7,8.4-18.7,13.1-30.1,12.8
	c-10,0.2-19.7-3.4-27.2-10c-7.5-6.6-12.2-15.8-13.3-25.7l2.4-201.3L417.7,261l2.9,263.1v0c-0.1,8.6-3.6,16.8-9.8,22.7
	c-8.1,8.1-18.9,12.8-30.4,13.2c-11.2-0.4-21.9-5-29.8-12.9c-8.1,8-19,12.7-30.4,12.9h-0.8c-9.9,0-19.4-3.7-26.7-10.2
	C285.4,543.1,280.8,534.1,279.8,524.3L279.8,524.3z M213.8,168.1c-4.4,0.9-8.2,3.6-10.5,7.4c-3.5,6.3-2.8,15.5,9.8,22.7l84,47.6l0,0
	c3.2,1.8,5.2,5.3,5.2,9l-2.8,269.7c0,7.3,10.6,15.4,20.3,15.4v0c4.4,0,8.7-1.3,12.3-3.8c3.6-2.5,6.4-6.1,7.9-10.2V373.2
	c0-5.6,4.6-10.1,10.2-10.1c5.6,0,10.1,4.5,10.1,10.1v150.1c0,0.3,0,0.7,0,1c-0.1,0.3-0.1,0.6-0.1,0.8h0.1c1.5,4.1,4.2,7.7,7.8,10.2
	c3.6,2.5,7.9,3.8,12.3,3.8c6.1-0.3,11.8-2.8,16.1-7.1c2.4-2.1,3.8-5.1,4.1-8.3l-3.2-269h0c-0.1-3.7,1.9-7.2,5.2-9l84-47.6
	c12.5-7.4,13-17.1,9.5-23.1c-2.3-3.7-6.1-6.3-10.4-7.1c-4.3-0.8-8.8,0.2-12.3,2.9l-33.6,18.8l-46.2,25.9c-1,0.5-2,0.9-3.1,1.1
	c-1,0.1-2.1,0.1-3.1,0c-25.1-2.2-50.3-2.2-75.3,0h-2.6c-1.2-0.2-2.4-0.7-3.5-1.3l-45.5-25.5l-32.8-18.3h0c-1.2-0.4-2.2-1.1-3.2-1.9
	c-2.3-1.3-4.9-1.9-7.6-1.9C215.8,167.7,214.8,167.9,213.8,168.1L213.8,168.1z M33,81.1c-4.4,0.9-8.2,3.6-10.5,7.4
	c-3.5,6.3-2.8,15.5,9.8,22.7l84,47.6c3.2,1.8,5.2,5.3,5.2,9l-2.8,269.7c0,7.3,10.6,15.4,20.3,15.4c9.2,0,19.3-7.5,20.2-14.3
	c-0.1-0.5-0.1-1.1-0.2-1.6l0-151.3c0-5.6,4.5-10.1,10.1-10.2c5.6,0,10.2,4.5,10.2,10.2v149.4c0.2,0.8,0.3,1.6,0.3,2.4
	c0,0.3-0.1,0.7-0.1,1c1.3,6.9,11.2,13.9,20.2,13.9c6.1-0.3,11.9-2.8,16.2-7.1c2.4-2.1,3.8-5.1,4.1-8.3l-2.6-210.1
	c0-1,0.2-2.1,0.5-3.1l-14.1-8c-9.2-4.1-16.3-11.8-19.6-21.4c-3.3-9.5-2.5-20,2.2-28.9c5-8.2,13.1-14,22.5-16.2
	c7.3-1.7,14.9-1.1,21.8,1.7l67.2-35.8c0.9-0.5,2-0.9,3-1.1c2.2-3.6,4.9-6.9,7.9-9.9c2.8-2.8,5.9-5.4,9.3-7.6c-0.8-1.2-1.2-2.6-1.4-4
	c-0.7-4.7-3.7-8.7-8-10.6c-5.5-2.4-11.8-1.9-16.8,1.4l-33.6,18.8L212.8,128c-1,0.6-2.1,0.9-3.2,1.1h-2.9c-25.1-2.2-50.3-2.2-75.3,0
	h-2.5c-1.3-0.2-2.5-0.7-3.6-1.3l-45.8-25.4L45.5,83.8h0c-2.7-2-6-3.1-9.4-3.1C35,80.8,34,80.9,33,81.1L33,81.1z M560.8,452.3
	c6.1-0.3,11.9-2.8,16.2-7.1c2.3-2.1,3.8-5,4.1-8.1l-2.9-269.1h0c-0.1-3.7,1.9-7.2,5.2-9l84-47.6c12.5-7.4,13-17.1,9.5-23.1h0
	c-2.3-3.7-6.1-6.3-10.4-7.2c-4.3-0.8-8.8,0.2-12.3,2.8l-34.6,18.9l-45,25.2c-1,0.6-2.1,0.9-3.2,1.1h-2.9c-25.1-2.2-50.3-2.2-75.3,0
	h-2.5c-1.3-0.2-2.5-0.7-3.6-1.3l-45.7-25.2l-34.7-18.8h0c-4.9-3.3-11.2-3.9-16.7-1.4c-4.4,2.1-7.4,6.2-8,11.1
	c-0.2,1.2-0.5,2.3-1.1,3.3c5.9,3.9,11.1,8.9,15.2,14.7l70.5,40.4l0.1,0.1v0c7.5-3.7,16-4.7,24.2-2.8c9.4,2.2,17.6,8.1,22.6,16.4
	c4.8,8.9,5.8,19.4,2.6,29c-3.2,9.6-10.2,17.5-19.4,21.7l-14.1,8L480,437.1c0,7.3,10.6,15.3,20.3,15.3c8.9,0,18.6-7,20.1-13.7
	c-0.1-0.6-0.2-1.1-0.2-1.7l0-151.2c0-5.6,4.5-10.2,10.2-10.2c5.6,0,10.1,4.5,10.1,10.2V434c0.3,0.9,0.4,1.9,0.4,2.9
	c-0.1,0.6-0.1,1.2-0.2,1.8C542.2,445.5,551.9,452.3,560.8,452.3L560.8,452.3z M386.2,195.9l43.7-24.4l15.8-8.4l-39.2-22.4
	c0.1,1.3,0.1,2.6,0.1,3.9l0,0c0,10.4-2.9,20.6-8.2,29.5c-5.4,8.9-13,16.2-22.2,21.1C379.5,195.4,382.9,195.6,386.2,195.9
	L386.2,195.9z M270.4,172.9l43.1,23c3-0.2,6-0.5,9-0.6v0c-11.7-6.2-20.9-16.2-26-28.4c-3.4-8.1-4.9-16.9-4.4-25.6L252,162.7
	L270.4,172.9z M312.7,144.7c0,9.8,3.9,19.3,10.9,26.2c7,7,16.4,10.9,26.2,10.9c9.8,0,19.3-3.9,26.2-10.9c7-7,10.9-16.4,10.9-26.2
	c0-6.7-1.8-13.3-5.2-19c-0.4-0.5-0.7-1-0.9-1.5c-6.9-10.4-18.5-16.6-30.9-16.6c-9.8,0-19.3,3.9-26.2,10.9S312.7,134.8,312.7,144.7
	L312.7,144.7z M496.3,43.1c-2.8,6.8-3.5,14.3-2.1,21.5c1.4,7.2,5,13.8,10.2,19c5.2,5.2,11.8,8.7,19,10.1c7.2,1.4,14.7,0.7,21.5-2.2
	c6.8-2.8,12.6-7.6,16.6-13.7c4.1-6.1,6.2-13.3,6.2-20.7c0-9.8-4-19.2-10.9-26.2c-7-6.9-16.4-10.8-26.2-10.8
	c-7.3,0-14.5,2.2-20.6,6.3C503.8,30.5,499.1,36.3,496.3,43.1L496.3,43.1z M131.5,57.3c0,9.8,3.9,19.3,10.9,26.2
	c7,7,16.4,10.9,26.2,10.9c9.8,0,19.3-3.9,26.2-10.9c7-7,10.9-16.4,10.9-26.2c0-9.8-3.9-19.3-10.9-26.2c-7-7-16.4-10.9-26.2-10.9
	c-9.8,0-19.3,3.9-26.2,10.9C135.4,38,131.5,47.4,131.5,57.3L131.5,57.3z"/>
</svg>
