<?xml version="1.0" encoding="utf-8"?>
<!-- Generator: Adobe Illustrator 26.0.2, SVG Export Plug-In . SVG Version: 6.00 Build 0)  -->
<svg version="1.1" id="Layer_1" xmlns="http://www.w3.org/2000/svg" xmlns:xlink="http://www.w3.org/1999/xlink" x="0px" y="0px"
	 viewBox="0 0 700 700" style="enable-background:new 0 0 700 700;" xml:space="preserve">
<path d="M350,192.5c-48.2,0-87.5,39.3-87.5,87.5s39.3,87.5,87.5,87.5s87.5-39.3,87.5-87.5S398.2,192.5,350,192.5z M396.5,302.5
	c1-7.1,1.6-14.6,1.6-22.4s-0.6-15.3-1.6-22.4c14.7,6,23.5,14.5,23.5,22.4S411.2,296.4,396.5,302.5z M350,350
	c-8,0-16.4-8.8-22.4-23.5c7.1,1,14.6,1.6,22.4,1.6s15.3-0.6,22.4-1.6C366.4,341.3,358,350,350,350z M350,310.6
	c-10.2,0-19.5-1-27.9-2.7c-1.7-8.4-2.7-17.8-2.7-27.9s1-19.5,2.7-27.9c8.4-1.7,17.8-2.7,27.9-2.7s19.5,1,27.9,2.7
	c1.7,8.4,2.7,17.8,2.7,27.9s-1,19.5-2.7,27.9C369.5,309.6,360.2,310.6,350,310.6z M280,280c0-8,8.8-16.4,23.5-22.4
	c-1,7.1-1.6,14.6-1.6,22.4s0.6,15.3,1.6,22.4C288.8,296.4,280,288,280,280z M350,210c8,0,16.4,8.8,22.4,23.5
	c-7.1-1-14.6-1.6-22.4-1.6s-15.3,0.6-22.4,1.6C333.6,218.8,342,210,350,210z M410.5,245c-5.5-2.9-11.5-5.3-18.2-7.3
	c-2-6.7-4.5-12.8-7.3-18.2C395.6,225.6,404.4,234.4,410.5,245L410.5,245z M315,219.5c-2.9,5.5-5.3,11.5-7.3,18.2
	c-6.7,2-12.8,4.5-18.2,7.3C295.6,234.4,304.4,225.6,315,219.5L315,219.5z M289.5,315c5.5,2.9,11.5,5.3,18.2,7.3
	c2,6.7,4.5,12.8,7.3,18.2C304.4,334.4,295.6,325.6,289.5,315L289.5,315z M385,340.5c2.9-5.5,5.3-11.5,7.3-18.2
	c6.7-2,12.8-4.5,18.2-7.3C404.4,325.6,395.6,334.4,385,340.5L385,340.5z"/>
<path d="M542.5,253.8c-11.4,0-21,7.3-24.6,17.5h-54.6c-1.9-24.8-11.7-47.3-27-65.2l51.2-51.2c3.4,1.6,7.2,2.6,11.2,2.6
	c14.5,0,26.2-11.8,26.2-26.2S513.2,105,498.7,105s-26.2,11.8-26.2,26.2c0,4,1,7.8,2.6,11.2l-51.2,51.2c-17.8-15.3-40.4-25.1-65.2-27
	v-54.6c10.2-3.6,17.5-13.2,17.5-24.6c0-14.5-11.8-26.2-26.2-26.2S323.8,73,323.8,87.5c0,11.4,7.3,21,17.5,24.6v54.6
	c-24.8,1.9-47.3,11.7-65.2,27l-51.2-51.2c1.6-3.4,2.6-7.2,2.6-11.2c0-14.5-11.8-26.2-26.2-26.2S175,116.8,175,131.2
	s11.8,26.2,26.2,26.2c4,0,7.8-1,11.2-2.6l51.2,51.2c-15.3,17.8-25.1,40.4-27,65.2h-54.6c-3.6-10.2-13.2-17.5-24.6-17.5
	c-14.5,0-26.2,11.8-26.2,26.2s11.8,26.2,26.2,26.2c11.4,0,21-7.3,24.6-17.5h54.6c1.9,24.8,11.7,47.3,27,65.2l-51.2,51.2
	c-3.4-1.6-7.2-2.6-11.2-2.6c-14.5,0-26.2,11.8-26.2,26.2s11.8,26.2,26.2,26.2s26.2-11.8,26.2-26.2c0-4-1-7.8-2.6-11.2l51.2-51.2
	c17.8,15.3,40.4,25.1,65.2,27v54.6c-10.2,3.6-17.5,13.2-17.5,24.6c0,14.5,11.8,26.2,26.2,26.2s26.2-11.8,26.2-26.2
	c0-11.4-7.3-21-17.5-24.6v-54.6c24.8-1.9,47.3-11.7,65.2-27l51.2,51.2c-1.6,3.4-2.6,7.2-2.6,11.2c0,14.5,11.8,26.2,26.2,26.2
	s26.2-11.8,26.2-26.2s-11.8-26.2-26.2-26.2c-4,0-7.8,1-11.2,2.6l-51.2-51.2c15.3-17.8,25.1-40.4,27-65.2h54.6
	c3.6,10.2,13.2,17.5,24.6,17.5c14.5,0,26.2-11.8,26.2-26.2S557,253.7,542.5,253.8L542.5,253.8z M498.8,122.5c4.8,0,8.8,3.9,8.8,8.8
	c0,4.8-3.9,8.8-8.8,8.8s-8.8-3.9-8.8-8.8S493.9,122.5,498.8,122.5z M350,78.8c4.8,0,8.8,3.9,8.8,8.8s-3.9,8.8-8.8,8.8
	s-8.8-3.9-8.8-8.8S345.2,78.8,350,78.8z M201.2,140c-4.8,0-8.8-3.9-8.8-8.8s3.9-8.8,8.8-8.8s8.8,3.9,8.8,8.8
	C210,136.1,206.1,140,201.2,140z M157.5,288.8c-4.8,0-8.8-3.9-8.8-8.8s3.9-8.8,8.8-8.8s8.8,3.9,8.8,8.8S162.3,288.8,157.5,288.8z
	 M201.2,437.5c-4.8,0-8.8-3.9-8.8-8.8s3.9-8.8,8.8-8.8s8.8,3.9,8.8,8.8S206.1,437.5,201.2,437.5z M350,481.2c-4.8,0-8.8-3.9-8.8-8.8
	s3.9-8.8,8.8-8.8s8.8,3.9,8.8,8.8S354.8,481.2,350,481.2z M498.8,420c4.8,0,8.8,3.9,8.8,8.8s-3.9,8.8-8.8,8.8s-8.8-3.9-8.8-8.8
	S493.9,420,498.8,420z M350,376.2c-53.1,0-96.2-43.2-96.2-96.2s43.2-96.2,96.2-96.2s96.2,43.2,96.2,96.2S403.1,376.2,350,376.2z
	 M542.5,288.8c-4.8,0-8.8-3.9-8.8-8.8s3.9-8.8,8.8-8.8s8.8,3.9,8.8,8.8S547.3,288.8,542.5,288.8z"/>
</svg>
