<?xml version="1.0" encoding="UTF-8"?>
<svg width="700pt" height="700pt" version="1.1" viewBox="0 0 700 700" xmlns="http://www.w3.org/2000/svg" xmlns:xlink="http://www.w3.org/1999/xlink">
 <defs>
  <symbol id="v" overflow="visible">
   <path d="m17.703-1.0625c-0.91797 0.48047-1.8711 0.83984-2.8594 1.0781-0.99219 0.23828-2.0234 0.35938-3.0938 0.35938-3.2109 0-5.75-0.89453-7.625-2.6875-1.875-1.7891-2.8125-4.2227-2.8125-7.2969 0-3.082 0.9375-5.5195 2.8125-7.3125 1.875-1.7891 4.4141-2.6875 7.625-2.6875 1.0703 0 2.1016 0.12109 3.0938 0.35938 0.98828 0.24219 1.9414 0.60156 2.8594 1.0781v3.9844c-0.92969-0.63281-1.8398-1.0977-2.7344-1.3906-0.88672-0.28906-1.8242-0.4375-2.8125-0.4375-1.7734 0-3.168 0.57031-4.1875 1.7031-1.0117 1.1367-1.5156 2.7031-1.5156 4.7031 0 1.9922 0.50391 3.5547 1.5156 4.6875 1.0195 1.1367 2.4141 1.7031 4.1875 1.7031 0.98828 0 1.9258-0.14453 2.8125-0.4375 0.89453-0.30078 1.8047-0.76562 2.7344-1.3906z"/>
  </symbol>
  <symbol id="b" overflow="visible">
   <path d="m12.953-10.516c-0.40625-0.1875-0.8125-0.32031-1.2188-0.40625-0.39844-0.09375-0.79297-0.14062-1.1875-0.14062-1.1875 0-2.1055 0.38281-2.75 1.1406-0.63672 0.76172-0.95312 1.8516-0.95312 3.2656v6.6562h-4.625v-14.453h4.625v2.375c0.59375-0.94531 1.2695-1.6328 2.0312-2.0625 0.76953-0.4375 1.6953-0.65625 2.7812-0.65625 0.14453 0 0.30469 0.007813 0.48438 0.015625 0.1875 0.011719 0.45312 0.042969 0.79688 0.09375z"/>
  </symbol>
  <symbol id="a" overflow="visible">
   <path d="m16.641-7.2656v1.3125h-10.797c0.11328 1.0859 0.50391 1.8984 1.1719 2.4375 0.67578 0.54297 1.6133 0.8125 2.8125 0.8125 0.96875 0 1.9609-0.14062 2.9844-0.42188 1.0195-0.28906 2.0664-0.72656 3.1406-1.3125v3.5625c-1.0859 0.40625-2.1719 0.71484-3.2656 0.92188-1.0938 0.21875-2.1875 0.32812-3.2812 0.32812-2.6172 0-4.6484-0.66016-6.0938-1.9844-1.4492-1.332-2.1719-3.2031-2.1719-5.6094 0-2.3516 0.70703-4.2031 2.125-5.5469 1.4258-1.3516 3.3828-2.0312 5.875-2.0312 2.2695 0 4.0859 0.6875 5.4531 2.0625 1.3633 1.3672 2.0469 3.1875 2.0469 5.4688zm-4.75-1.5312c0-0.875-0.25781-1.582-0.76562-2.125-0.51172-0.53906-1.1797-0.8125-2-0.8125-0.89844 0-1.625 0.25781-2.1875 0.76562-0.55469 0.5-0.90234 1.2266-1.0469 2.1719z"/>
  </symbol>
  <symbol id="d" overflow="visible">
   <path d="m8.7031-6.5c-0.96875 0-1.6992 0.16797-2.1875 0.5-0.48047 0.32422-0.71875 0.80469-0.71875 1.4375 0 0.58594 0.19141 1.043 0.57812 1.375 0.39453 0.32422 0.94141 0.48438 1.6406 0.48438 0.86328 0 1.5938-0.30469 2.1875-0.92188 0.59375-0.625 0.89062-1.4062 0.89062-2.3438v-0.53125zm7.0469-1.75v8.25h-4.6562v-2.1406c-0.61719 0.875-1.3125 1.5156-2.0938 1.9219-0.77344 0.39453-1.7109 0.59375-2.8125 0.59375-1.5 0-2.7188-0.4375-3.6562-1.3125-0.92969-0.875-1.3906-2.0039-1.3906-3.3906 0-1.6953 0.57812-2.9414 1.7344-3.7344 1.1641-0.78906 3-1.1875 5.5-1.1875h2.7188v-0.35938c0-0.72656-0.29297-1.2656-0.875-1.6094-0.57422-0.34375-1.4688-0.51562-2.6875-0.51562-0.99219 0-1.9141 0.10156-2.7656 0.29688-0.84375 0.19922-1.6328 0.49609-2.3594 0.89062v-3.5156c0.98828-0.23828 1.9766-0.42188 2.9688-0.54688 1-0.125 2-0.1875 3-0.1875 2.6016 0 4.4844 0.51562 5.6406 1.5469 1.1562 1.0234 1.7344 2.6875 1.7344 5z"/>
  </symbol>
  <symbol id="c" overflow="visible">
   <path d="m7.2656-18.547v4.0938h4.7656v3.3125h-4.7656v6.125c0 0.66797 0.12891 1.1211 0.39062 1.3594 0.26953 0.24219 0.80078 0.35938 1.5938 0.35938h2.375v3.2969h-3.9688c-1.8242 0-3.1172-0.37891-3.875-1.1406-0.76172-0.75781-1.1406-2.0508-1.1406-3.875v-6.125h-2.2969v-3.3125h2.2969v-4.0938z"/>
  </symbol>
  <symbol id="l" overflow="visible">
   <path d="m12.047-12.328v-7.75h4.6406v20.078h-4.6406v-2.0938c-0.63672 0.85547-1.3398 1.4805-2.1094 1.875-0.76172 0.39453-1.6406 0.59375-2.6406 0.59375-1.7812 0-3.2461-0.70703-4.3906-2.125-1.1484-1.4141-1.7188-3.2383-1.7188-5.4688 0-2.2188 0.57031-4.0352 1.7188-5.4531 1.1445-1.4141 2.6094-2.125 4.3906-2.125 0.98828 0 1.8672 0.20312 2.6406 0.60938 0.76953 0.39844 1.4727 1.0156 2.1094 1.8594zm-3.0469 9.3438c0.98828 0 1.7422-0.35938 2.2656-1.0781 0.51953-0.71875 0.78125-1.7695 0.78125-3.1562 0-1.375-0.26172-2.4219-0.78125-3.1406-0.52344-0.71875-1.2773-1.0781-2.2656-1.0781-0.98047 0-1.7305 0.35938-2.25 1.0781-0.52344 0.71875-0.78125 1.7656-0.78125 3.1406 0 1.3867 0.25781 2.4375 0.78125 3.1562 0.51953 0.71875 1.2695 1.0781 2.25 1.0781z"/>
  </symbol>
  <symbol id="k" overflow="visible">
   <path d="m9.9062-2.9844c0.98828 0 1.7422-0.35938 2.2656-1.0781 0.51953-0.71875 0.78125-1.7695 0.78125-3.1562 0-1.375-0.26172-2.4219-0.78125-3.1406-0.52344-0.71875-1.2773-1.0781-2.2656-1.0781-0.99219 0-1.75 0.36719-2.2812 1.0938-0.52344 0.71875-0.78125 1.7617-0.78125 3.125 0 1.375 0.25781 2.4297 0.78125 3.1562 0.53125 0.71875 1.2891 1.0781 2.2812 1.0781zm-3.0625-9.3438c0.63281-0.84375 1.3359-1.4609 2.1094-1.8594 0.76953-0.40625 1.6602-0.60938 2.6719-0.60938 1.7812 0 3.2383 0.71094 4.375 2.125 1.1445 1.418 1.7188 3.2344 1.7188 5.4531 0 2.2305-0.57422 4.0547-1.7188 5.4688-1.1367 1.418-2.5938 2.125-4.375 2.125-1.0117 0-1.9023-0.19922-2.6719-0.59375-0.77344-0.40625-1.4766-1.0312-2.1094-1.875v2.0938h-4.625v-20.078h4.625z"/>
  </symbol>
  <symbol id="j" overflow="visible">
   <path d="m0.32812-14.453h4.6094l3.8906 9.8125 3.2969-9.8125h4.625l-6.0781 15.828c-0.61719 1.6016-1.3281 2.7227-2.1406 3.3594-0.8125 0.64453-1.8867 0.96875-3.2188 0.96875h-2.6719v-3.0312h1.4531c0.78125 0 1.3477-0.125 1.7031-0.375 0.35156-0.25 0.62891-0.69922 0.82812-1.3438l0.14062-0.39062z"/>
  </symbol>
  <symbol id="i" overflow="visible">
   <path d="m2.4219-19.266h4.9688v19.266h-4.9688z"/>
  </symbol>
  <symbol id="h" overflow="visible">
   <path d="m15.609-12.047c0.58203-0.89453 1.2734-1.5781 2.0781-2.0469 0.8125-0.46875 1.6953-0.70312 2.6562-0.70312 1.6562 0 2.9141 0.51172 3.7812 1.5312 0.875 1.0234 1.3125 2.5117 1.3125 4.4688v8.7969h-4.6406v-7.5312c0.007813-0.11328 0.015625-0.22656 0.015625-0.34375 0.007812-0.125 0.015625-0.30078 0.015625-0.53125 0-1.0195-0.15234-1.7578-0.45312-2.2188-0.30469-0.45703-0.79297-0.6875-1.4688-0.6875-0.875 0-1.5547 0.36719-2.0312 1.0938-0.46875 0.71875-0.71484 1.7617-0.73438 3.125v7.0938h-4.6406v-7.5312c0-1.6016-0.14062-2.6328-0.42188-3.0938-0.27344-0.45703-0.76172-0.6875-1.4688-0.6875-0.88672 0-1.5703 0.36719-2.0469 1.0938-0.48047 0.71875-0.71875 1.7578-0.71875 3.1094v7.1094h-4.6562v-14.453h4.6562v2.125c0.5625-0.82031 1.207-1.4375 1.9375-1.8438 0.73828-0.41406 1.5508-0.625 2.4375-0.625 1 0 1.8789 0.24219 2.6406 0.71875 0.76953 0.48047 1.3516 1.1562 1.75 2.0312z"/>
  </symbol>
  <symbol id="g" overflow="visible">
   <path d="m16.75-8.7969v8.7969h-4.6562v-6.7344c0-1.25-0.027344-2.1094-0.078125-2.5781-0.054687-0.47656-0.14844-0.82812-0.28125-1.0469-0.1875-0.30078-0.4375-0.53516-0.75-0.70312-0.30469-0.16406-0.65234-0.25-1.0469-0.25-0.96875 0-1.7305 0.375-2.2812 1.125-0.54297 0.74219-0.8125 1.7656-0.8125 3.0781v7.1094h-4.625v-14.453h4.625v2.125c0.6875-0.84375 1.4219-1.4609 2.2031-1.8594 0.78906-0.40625 1.6602-0.60938 2.6094-0.60938 1.6641 0 2.9297 0.51172 3.7969 1.5312 0.86328 1.0234 1.2969 2.5117 1.2969 4.4688z"/>
  </symbol>
  <symbol id="u" overflow="visible">
   <path d="m13.5-14v3.5156c-0.98047-0.41406-1.9336-0.72656-2.8594-0.9375-0.91797-0.20703-1.7891-0.3125-2.6094-0.3125-0.875 0-1.5273 0.11719-1.9531 0.34375-0.42969 0.21875-0.64062 0.55469-0.64062 1 0 0.375 0.16016 0.66406 0.48438 0.85938 0.32031 0.19922 0.89844 0.34375 1.7344 0.4375l0.8125 0.10938c2.375 0.30469 3.9688 0.79688 4.7812 1.4844s1.2188 1.7734 1.2188 3.25c0 1.5312-0.57031 2.6875-1.7031 3.4688-1.1367 0.77344-2.8281 1.1562-5.0781 1.1562-0.96094 0-1.9492-0.078125-2.9688-0.23438-1.0117-0.14453-2.0547-0.36719-3.125-0.67188v-3.5c0.91406 0.4375 1.8594 0.77344 2.8281 1 0.96875 0.21875 1.9453 0.32812 2.9375 0.32812 0.90625 0 1.5859-0.11719 2.0469-0.35938 0.45703-0.25 0.6875-0.625 0.6875-1.125 0-0.40625-0.16406-0.70703-0.48438-0.90625-0.3125-0.20703-0.9375-0.36719-1.875-0.48438l-0.8125-0.09375c-2.0547-0.25781-3.4922-0.73828-4.3125-1.4375-0.82422-0.69531-1.2344-1.7539-1.2344-3.1719 0-1.5312 0.51953-2.6641 1.5625-3.4062 1.0508-0.73828 2.6602-1.1094 4.8281-1.1094 0.85156 0 1.75 0.070313 2.6875 0.20312 0.9375 0.125 1.9531 0.32422 3.0469 0.59375z"/>
  </symbol>
  <symbol id="f" overflow="visible">
   <path d="m16.75-8.7969v8.7969h-4.6562v-6.7031c0-1.2695-0.027344-2.1406-0.078125-2.6094-0.054687-0.47656-0.14844-0.82812-0.28125-1.0469-0.1875-0.30078-0.4375-0.53516-0.75-0.70312-0.30469-0.16406-0.65234-0.25-1.0469-0.25-0.96875 0-1.7305 0.375-2.2812 1.125-0.54297 0.74219-0.8125 1.7656-0.8125 3.0781v7.1094h-4.625v-20.078h4.625v7.75c0.6875-0.84375 1.4219-1.4609 2.2031-1.8594 0.78906-0.40625 1.6602-0.60938 2.6094-0.60938 1.6641 0 2.9297 0.51172 3.7969 1.5312 0.86328 1.0234 1.2969 2.5117 1.2969 4.4688z"/>
  </symbol>
  <symbol id="t" overflow="visible">
   <path d="m2.2188-14.453h4.625v14.453h-4.625zm0-5.625h4.625v3.7656h-4.625z"/>
  </symbol>
  <symbol id="s" overflow="visible">
   <path d="m2.2188-20.078h4.625v10.938l5.3125-5.3125h5.3594l-7.0469 6.6406 7.6094 7.8125h-5.6094l-5.625-6.0312v6.0312h-4.625z"/>
  </symbol>
  <symbol id="r" overflow="visible">
   <path d="m11.734-20.078v3.0312h-2.5625c-0.65625 0-1.1172 0.12109-1.375 0.35938-0.25 0.24219-0.375 0.65234-0.375 1.2344v1h3.9375v3.3125h-3.9375v11.141h-4.625v-11.141h-2.2969v-3.3125h2.2969v-1c0-1.5703 0.4375-2.7344 1.3125-3.4844 0.88281-0.75781 2.2422-1.1406 4.0781-1.1406z"/>
  </symbol>
  <symbol id="e" overflow="visible">
   <path d="m9.0938-11.5c-1.0234 0-1.8047 0.37109-2.3438 1.1094-0.53125 0.74219-0.79688 1.7969-0.79688 3.1719 0 1.3867 0.26562 2.4492 0.79688 3.1875 0.53906 0.74219 1.3203 1.1094 2.3438 1.1094 1.0078 0 1.7812-0.36719 2.3125-1.1094 0.53125-0.73828 0.79688-1.8008 0.79688-3.1875 0-1.375-0.26562-2.4297-0.79688-3.1719-0.53125-0.73828-1.3047-1.1094-2.3125-1.1094zm0-3.2969c2.4883 0 4.4297 0.67188 5.8281 2.0156 1.3945 1.3438 2.0938 3.1992 2.0938 5.5625 0 2.375-0.69922 4.2344-2.0938 5.5781-1.3984 1.3438-3.3398 2.0156-5.8281 2.0156-2.4922 0-4.4375-0.67188-5.8438-2.0156s-2.1094-3.2031-2.1094-5.5781c0-2.3633 0.70312-4.2188 2.1094-5.5625s3.3516-2.0156 5.8438-2.0156z"/>
  </symbol>
  <symbol id="q" overflow="visible">
   <path d="m2.4219-19.266h5.5469l7.0156 13.219v-13.219h4.7031v19.266h-5.5469l-7-13.219v13.219h-4.7188z"/>
  </symbol>
  <symbol id="p" overflow="visible">
   <path d="m2.0625-5.625v-8.8281h4.6406v1.4531c0 0.78125-0.007813 1.7656-0.015625 2.9531v2.3594c0 1.1562 0.023438 1.9961 0.078125 2.5156 0.0625 0.51172 0.16406 0.88281 0.3125 1.1094 0.1875 0.30469 0.42969 0.53906 0.73438 0.70312 0.3125 0.15625 0.66406 0.23438 1.0625 0.23438 0.96875 0 1.7227-0.36719 2.2656-1.1094 0.55078-0.73828 0.82812-1.7656 0.82812-3.0781v-7.1406h4.625v14.453h-4.625v-2.0938c-0.69922 0.84375-1.4375 1.4688-2.2188 1.875-0.77344 0.39453-1.625 0.59375-2.5625 0.59375-1.668 0-2.9375-0.50781-3.8125-1.5312-0.875-1.0312-1.3125-2.5195-1.3125-4.4688z"/>
  </symbol>
  <symbol id="o" overflow="visible">
   <path d="m2.4219-19.266h8.25c2.4453 0 4.3281 0.54688 5.6406 1.6406 1.3125 1.0859 1.9688 2.6328 1.9688 4.6406 0 2.0234-0.65625 3.5781-1.9688 4.6719-1.3125 1.0859-3.1953 1.625-5.6406 1.625h-3.2812v6.6875h-4.9688zm4.9688 3.6094v5.375h2.75c0.95703 0 1.6953-0.23438 2.2188-0.70312 0.53125-0.46875 0.79688-1.1328 0.79688-2 0-0.85156-0.26562-1.5078-0.79688-1.9688-0.52344-0.46875-1.2617-0.70312-2.2188-0.70312z"/>
  </symbol>
  <symbol id="n" overflow="visible">
   <path d="m2.2188-14.453h4.625v14.188c0 1.9375-0.46875 3.4141-1.4062 4.4375-0.92969 1.0195-2.2734 1.5312-4.0312 1.5312h-2.2812v-3.0312h0.79688c0.875 0 1.4727-0.19922 1.7969-0.59375 0.33203-0.39844 0.5-1.1797 0.5-2.3438zm0-5.625h4.625v3.7656h-4.625z"/>
  </symbol>
  <symbol id="m" overflow="visible">
   <path d="m13.891-14v3.7656c-0.625-0.42578-1.2578-0.74219-1.8906-0.95312-0.625-0.20703-1.2812-0.3125-1.9688-0.3125-1.2812 0-2.2812 0.38281-3 1.1406-0.71875 0.75-1.0781 1.7969-1.0781 3.1406 0 1.3555 0.35938 2.4141 1.0781 3.1719 0.71875 0.75 1.7188 1.125 3 1.125 0.72656 0 1.4141-0.10938 2.0625-0.32812 0.64453-0.21875 1.2422-0.53516 1.7969-0.95312v3.7812c-0.71875 0.26172-1.4531 0.45703-2.2031 0.59375-0.74219 0.13281-1.4844 0.20312-2.2344 0.20312-2.6055 0-4.6406-0.66406-6.1094-2-1.4688-1.3438-2.2031-3.207-2.2031-5.5938 0-2.375 0.73438-4.2266 2.2031-5.5625 1.4688-1.3438 3.5039-2.0156 6.1094-2.0156 0.75781 0 1.5039 0.070313 2.2344 0.20312 0.73828 0.13672 1.4727 0.33594 2.2031 0.59375z"/>
  </symbol>
 </defs>
 <g>
  <path d="m279.77 524.28 2.8008-263.82-44.848-25.41 2.5508 201.85 0.003907-0.003906c-0.089844 8.5742-3.6211 16.75-9.8008 22.691-8.2383 8.1875-19.336 12.855-30.949 13.02-11.426 0.23047-22.402-4.457-30.141-12.871-7.8164 8.5078-18.938 13.203-30.488 12.871-9.9648 0.16016-19.633-3.4141-27.098-10.023-7.4648-6.6094-12.184-15.77-13.23-25.688l2.8008-263.82-79.117-44.816h-0.003906c-9.1797-4.0977-16.258-11.812-19.547-21.312-3.2852-9.4922-2.5039-19.922 2.1602-28.816 4.9141-8.5117 13.098-14.641 22.645-16.969s19.629-0.64844 27.91 4.6445l33.887 18.902 43.27 24.227c3.2812-0.26953 6.5664-0.5 9.8516-0.69141h-0.003906c-9.3789-4.8086-17.25-12.113-22.742-21.105-5.4961-8.9961-8.4023-19.332-8.3984-29.871 0-15.195 6.0352-29.766 16.781-40.508 10.75-10.742 25.324-16.773 40.516-16.766 15.191 0 29.758 6.0352 40.5 16.773 10.742 10.742 16.773 25.309 16.773 40.5-0.019531 10.531-2.9414 20.855-8.4375 29.84-5.5 8.9844-13.363 16.281-22.73 21.094 3.5234 0.20312 7.043 0.44922 10.566 0.73438l43.555-24.367 33.605-18.766-0.003906 0.003906c10.852-6.6719 24.34-7.4102 35.852-1.9609 9.6758 4.9805 16.418 14.258 18.156 25.004 8.5078-1.9727 17.352-1.9727 25.855 0 2.0234-10.645 8.8945-19.734 18.582-24.582 11.449-5.4375 24.871-4.7539 35.707 1.8242l34.172 19.02 43.129 24.086c3.6562-0.30078 7.3164-0.55469 10.984-0.76172v-0.003906c-9.4922-4.7656-17.469-12.078-23.043-21.117-5.5742-9.0391-8.5273-19.453-8.5234-30.074 0.007812-15.188 6.0469-29.75 16.789-40.484 10.746-10.738 25.312-16.766 40.5-16.762 15.191 0 29.758 6.0352 40.5 16.773 10.738 10.742 16.773 25.309 16.773 40.5-0.019532 10.645-2.9961 21.074-8.5977 30.121-5.6016 9.0508-13.613 16.363-23.133 21.125 3.4844 0.19922 6.9648 0.44531 10.445 0.73047l42.852-23.941 35.289-19.469v-0.003906c8.1562-5.2188 18.074-6.9336 27.508-4.7539 9.4375 2.1914 17.594 8.0977 22.617 16.379 4.8477 8.8867 5.7891 19.383 2.6055 28.992-3.1875 9.6094-10.215 17.465-19.41 21.695l-78.977 44.812 3.2188 263.68c-0.089844 8.5742-3.625 16.75-9.8047 22.691-8.4023 8.4922-19.844 13.281-31.789 13.297-11.414 0.23438-22.379-4.4375-30.113-12.832-7.7344 8.3945-18.699 13.066-30.113 12.832-9.9922 0.19922-19.691-3.3633-27.188-9.9727-7.4922-6.6133-12.23-15.797-13.281-25.734l2.4414-201.28-44.73 25.359 2.9414 263.12v-0.003906c-0.089844 8.5742-3.625 16.75-9.8047 22.688-8.0781 8.1055-18.949 12.812-30.387 13.16-11.211-0.38281-21.863-4.9844-29.828-12.879-8.0938 8.0312-18.961 12.652-30.363 12.91h-0.79297c-9.8555 0-19.363-3.6523-26.688-10.246-7.3281-6.5977-11.953-15.668-12.988-25.473zm-66-356.21c-4.3711 0.88281-8.168 3.5664-10.461 7.3945-3.5039 6.3008-2.8008 15.543 9.8047 22.684l84 47.609 0.003906 0.003907c3.25 1.8086 5.2383 5.2617 5.1758 8.9805l-2.8008 269.71c0 7.2812 10.645 15.398 20.309 15.398v0.003906c4.3906 0.011719 8.6797-1.3203 12.285-3.8242 3.6094-2.5078 6.3594-6.0586 7.8789-10.176v-152.66c0.003906-5.6055 4.5508-10.148 10.156-10.148 5.6016 0.003907 10.145 4.543 10.148 10.148v150.12c0.019531 0.32422 0.019531 0.65234 0 0.97656-0.070313 0.27734-0.11719 0.55859-0.13672 0.83984h0.13672c1.4844 4.1445 4.2266 7.7188 7.8398 10.23 3.6172 2.5078 7.9258 3.8281 12.324 3.7695 6.0664-0.30469 11.805-2.8477 16.102-7.1406 2.3594-2.1367 3.8125-5.0938 4.0625-8.2656l-3.2188-269h0.003906c-0.0625-3.7188 1.9297-7.1719 5.1836-8.9805l84-47.609c12.461-7.3945 13.023-17.086 9.5078-23.109-2.332-3.7109-6.1133-6.2734-10.422-7.0703-4.3125-0.79687-8.7578 0.24609-12.262 2.875l-33.605 18.762-46.211 25.887c-0.95703 0.53906-2 0.91797-3.082 1.1211-1.0234 0.125-2.0547 0.125-3.0781 0-25.066-2.1836-50.273-2.1836-75.336 0h-2.6406c-1.2266-0.24219-2.4062-0.66797-3.5-1.2656l-45.512-25.484-32.801-18.285h-0.003906c-1.1641-0.43359-2.2383-1.082-3.168-1.9062-2.3242-1.2695-4.9297-1.9336-7.5742-1.9336-1.0469 0.015625-2.0859 0.13281-3.1094 0.35547zm-180.79-86.965c-4.3711 0.88281-8.168 3.5664-10.457 7.3945-3.4961 6.3008-2.793 15.543 9.8047 22.684l84 47.617c3.25 1.8125 5.2422 5.2617 5.1797 8.9844l-2.8008 269.7c0 7.2852 10.641 15.406 20.301 15.406 9.1875 0 19.262-7.4688 20.23-14.344-0.078125-0.53906-0.14453-1.0781-0.20703-1.6211l0.003906-151.26c0-5.6055 4.543-10.148 10.148-10.152 5.6094 0 10.152 4.5469 10.152 10.152v149.41c0.1875 0.78125 0.28125 1.5781 0.28125 2.3789-0.035157 0.32812-0.085938 0.66016-0.13281 0.98828 1.3203 6.9414 11.168 13.855 20.156 13.855 6.1133-0.26563 11.91-2.8164 16.238-7.1406 2.3594-2.1367 3.8164-5.0898 4.0625-8.2656l-2.6406-210.05c0-1.0469 0.16406-2.0898 0.48047-3.0898l-14.062-7.9648c-9.207-4.1055-16.305-11.844-19.594-21.371-3.2891-9.5273-2.4805-19.992 2.2227-28.902 5.0312-8.1992 13.133-14.039 22.5-16.227 7.2617-1.6914 14.867-1.0859 21.773 1.7305l67.199-35.777c0.94141-0.51172 1.9609-0.86719 3.0156-1.0586 2.25-3.582 4.8867-6.9023 7.8672-9.9062 2.8242-2.8438 5.9375-5.3828 9.293-7.5781-0.75391-1.2266-1.2344-2.5977-1.4102-4.0234-0.69531-4.6641-3.6953-8.6641-7.9766-10.637-5.4805-2.418-11.809-1.8906-16.812 1.3984l-33.605 18.766-45.371 25.766c-1 0.55078-2.0898 0.92969-3.2148 1.1211h-2.9453c-25.062-2.1641-50.27-2.1641-75.336 0h-2.5195c-1.2695-0.23047-2.5-0.65625-3.6406-1.2656l-45.789-25.359-33.891-18.621h0.003906c-2.7227-2.0039-6.0117-3.082-9.3906-3.0859-1.0469 0.011719-2.0898 0.125-3.1172 0.33984zm527.83 371.2c6.1172-0.26563 11.914-2.8125 16.246-7.1406 2.3359-2.0938 3.7891-4.9961 4.0625-8.1211l-2.9414-269.14h-0.003906c-0.058594-3.7188 1.9336-7.1719 5.1836-8.9805l84-47.609c12.461-7.3945 13.023-17.086 9.5078-23.109h0.003907c-2.3125-3.7305-6.0781-6.3242-10.387-7.1523-4.3125-0.82422-8.7695 0.19531-12.293 2.8086l-34.594 18.902-44.953 25.211c-1.0039 0.55469-2.0898 0.93359-3.2188 1.1211h-2.9414c-25.066-2.1641-50.273-2.1641-75.336 0h-2.5195c-1.2734-0.22656-2.5-0.65234-3.6367-1.2617l-45.656-25.207-34.727-18.766h0.003906c-4.9336-3.3398-11.25-3.8672-16.668-1.3984-4.4023 2.0547-7.4219 6.2422-7.9844 11.062-0.15625 1.1641-0.51172 2.2891-1.0586 3.3281 5.918 3.9102 11.059 8.8867 15.16 14.676l70.469 40.391 0.11719 0.070313v-0.003906c7.4844-3.7227 16.031-4.7305 24.176-2.8398 9.4336 2.1914 17.59 8.0938 22.613 16.375 4.8438 8.8867 5.7852 19.383 2.6016 28.988-3.1836 9.6094-10.211 17.469-19.406 21.703l-14.078 7.9883-2.5898 212.85c0 7.2812 10.641 15.262 20.301 15.262 8.8984 0 18.613-6.9961 20.105-13.68-0.085938-0.57031-0.16016-1.1445-0.22266-1.7266l0.003907-151.23c0-5.6055 4.5469-10.152 10.156-10.152 5.6055 0.003906 10.148 4.5469 10.148 10.152v148.34c0.27734 0.9375 0.41797 1.9141 0.41797 2.8945-0.0625 0.58984-0.14062 1.1797-0.22656 1.7578 1.5352 6.8672 11.266 13.641 20.164 13.641zm-174.61-256.4 43.691-24.371 15.848-8.3672-39.246-22.422c0.089844 1.293 0.13281 2.5938 0.13281 3.9023l-0.003906 0.003907c-0.019532 10.395-2.8633 20.586-8.2227 29.488-5.3633 8.9023-13.039 16.184-22.211 21.066 3.3438 0.19922 6.6836 0.4375 10.012 0.70703zm-115.81-22.969 43.129 22.969c3.0117-0.24609 6.0234-0.46094 9.0352-0.64453v0.003907c-11.68-6.1836-20.859-16.215-25.984-28.391-3.4062-8.0938-4.9023-16.859-4.3789-25.625l-40.234 21.43zm42.289-28.285c0 9.8438 3.9102 19.281 10.867 26.238 6.9609 6.9609 16.398 10.871 26.242 10.871 9.8398 0 19.277-3.9102 26.238-10.871 6.957-6.957 10.867-16.395 10.867-26.238 0.011719-6.6953-1.7969-13.27-5.2344-19.02-0.35938-0.46875-0.67578-0.97266-0.94531-1.5-6.875-10.371-18.492-16.602-30.934-16.594-9.8398 0.003906-19.281 3.9141-26.238 10.875-6.957 6.9609-10.867 16.402-10.863 26.246zm183.59-101.54c-2.8047 6.7891-3.5312 14.254-2.0898 21.457 1.4453 7.2031 4.9922 13.812 10.195 19 5.2031 5.1836 11.832 8.7109 19.039 10.125 7.2109 1.418 14.68 0.66016 21.461-2.168 6.7773-2.832 12.562-7.6133 16.621-13.734 4.0586-6.1211 6.2109-13.309 6.1836-20.656-0.03125-9.8164-3.957-19.223-10.914-26.156-6.9531-6.9297-16.375-10.824-26.195-10.824-7.3477 0-14.527 2.1836-20.637 6.2695-6.1055 4.0859-10.863 9.8945-13.664 16.688zm-364.8 14.168c0 9.8398 3.9102 19.281 10.871 26.238 6.957 6.9609 16.398 10.871 26.238 10.871 9.8438 0 19.281-3.9102 26.238-10.871 6.9609-6.957 10.871-16.398 10.871-26.238 0-9.8438-3.9102-19.281-10.871-26.242-6.957-6.9609-16.395-10.871-26.238-10.871-9.8398 0.003906-19.277 3.9141-26.234 10.875-6.9609 6.957-10.867 16.398-10.867 26.238z"/>
  <use x="0.71875" y="639.246094" xlink:href="#v"/>
  <use x="20.105469" y="639.246094" xlink:href="#b"/>
  <use x="33.132813" y="639.246094" xlink:href="#a"/>
  <use x="51.046875" y="639.246094" xlink:href="#d"/>
  <use x="68.871094" y="639.246094" xlink:href="#c"/>
  <use x="81.5" y="639.246094" xlink:href="#a"/>
  <use x="99.414063" y="639.246094" xlink:href="#l"/>
  <use x="127.519531" y="639.246094" xlink:href="#k"/>
  <use x="146.425781" y="639.246094" xlink:href="#j"/>
  <use x="172.84375" y="639.246094" xlink:href="#i"/>
  <use x="182.671875" y="639.246094" xlink:href="#h"/>
  <use x="210.195312" y="639.246094" xlink:href="#b"/>
  <use x="223.222656" y="639.246094" xlink:href="#d"/>
  <use x="241.046875" y="639.246094" xlink:href="#g"/>
  <use x="269.046875" y="639.246094" xlink:href="#u"/>
  <use x="284.769531" y="639.246094" xlink:href="#f"/>
  <use x="303.578125" y="639.246094" xlink:href="#d"/>
  <use x="321.402344" y="639.246094" xlink:href="#t"/>
  <use x="330.457031" y="639.246094" xlink:href="#s"/>
  <use x="348.023438" y="639.246094" xlink:href="#f"/>
  <use x="0.71875" y="665.660156" xlink:href="#r"/>
  <use x="12.210938" y="665.660156" xlink:href="#b"/>
  <use x="25.238281" y="665.660156" xlink:href="#e"/>
  <use x="43.386719" y="665.660156" xlink:href="#h"/>
  <use x="80.105469" y="665.660156" xlink:href="#c"/>
  <use x="92.734375" y="665.660156" xlink:href="#f"/>
  <use x="111.539063" y="665.660156" xlink:href="#a"/>
  <use x="138.648438" y="665.660156" xlink:href="#q"/>
  <use x="160.757812" y="665.660156" xlink:href="#e"/>
  <use x="178.902344" y="665.660156" xlink:href="#p"/>
  <use x="197.710938" y="665.660156" xlink:href="#g"/>
  <use x="225.710938" y="665.660156" xlink:href="#o"/>
  <use x="245.070312" y="665.660156" xlink:href="#b"/>
  <use x="258.097656" y="665.660156" xlink:href="#e"/>
  <use x="276.246094" y="665.660156" xlink:href="#n"/>
  <use x="285.300781" y="665.660156" xlink:href="#a"/>
  <use x="303.214844" y="665.660156" xlink:href="#m"/>
  <use x="318.875" y="665.660156" xlink:href="#c"/>
 </g>
</svg>
