<?xml version="1.0" encoding="utf-8"?>
<!-- Generator: Adobe Illustrator 26.0.2, SVG Export Plug-In . SVG Version: 6.00 Build 0)  -->
<svg version="1.1" id="Layer_1" xmlns="http://www.w3.org/2000/svg" xmlns:xlink="http://www.w3.org/1999/xlink" x="0px" y="0px"
	 viewBox="0 0 234 234" style="enable-background:new 0 0 234 234;" xml:space="preserve">
<style type="text/css">
	.st0{fill:#020202;}
	.st1{fill:#010101;}
</style>
<g>
	<path class="st0" d="M5.7,113.2c0.6,1.9,3.2,3.9,5.8,3.9h18.7v93.5c0,3.2,2.6,6.4,6.4,6.4h161.8c3.2,0,6.4-2.6,6.4-6.4v-93.5h18.1
		c2.6,0,5.2-1.9,5.8-3.9c0.6-2.6,0-5.2-1.9-7.1l-34.8-29V23.6c0-3.2-2.6-6.4-6.4-6.4h-25.1c-3.2,0-6.4,2.6-6.4,6.4v22.6l-33.5-27.7
		c-2.6-1.9-5.8-1.9-7.7,0L7.6,106.1C5,108.1,4.4,110.6,5.7,113.2z M117.2,31.3l40,32.9c1.9,1.3,4.5,1.9,6.4,0.6
		c1.9-1.3,3.2-3.2,3.2-5.8V30h12.2v50.3c0,1.9,0.6,3.9,2.6,4.5l23.9,20h-7.7c-3.2,0-6.4,2.6-6.4,6.4v93.5H42.4v-94.1
		c0-3.2-2.6-6.4-6.4-6.4h-7.1L117.2,31.3z"/>
	<path class="st0" d="M117.3,179.6c12.9,0,25.8-4.5,35.5-14.2c2.6-2.6,2.6-6.4,0-9c-2.6-2.6-6.4-2.6-9,0
		c-14.8,14.2-38.7,14.2-53.5,0c-2.6-2.6-6.4-2.6-9,0c-2.6,2.6-2.6,6.4,0,9C91.5,174.5,104.4,179.6,117.3,179.6z"/>
	<g>
		<path class="st0" d="M138.6,128c3.2,0,6.4-2.6,6.4-6.4v-12.2c0-3.2-2.6-6.4-6.4-6.4s-6.4,2.6-6.4,6.4v12.9
			C132.8,125.5,135.4,128,138.6,128z"/>
		<g>
			<g>
				<path class="st1" d="M86.4,108.7v-8.4l29.7,12.2v5.8l-29.7,12.2v-8.4l17.4-6.4L86.4,108.7z"/>
			</g>
		</g>
	</g>
</g>
</svg>
