<?xml version="1.0" encoding="utf-8"?>
<!-- Generator: Adobe Illustrator 25.4.1, SVG Export Plug-In . SVG Version: 6.00 Build 0)  -->
<svg version="1.1" id="Layer_1" xmlns="http://www.w3.org/2000/svg" xmlns:xlink="http://www.w3.org/1999/xlink" x="0px" y="0px"
	 viewBox="0 0 141 128" style="enable-background:new 0 0 141 128;" xml:space="preserve">
<style type="text/css">
	.st0{fill:#010101;}
</style>
<path class="st0" d="M3.2,59.5C3.8,61,5.2,62,6.8,62H18v56.2c0,2.1,1.7,3.7,3.7,3.7h97.5c2.1,0,3.7-1.7,3.7-3.7V62h11.2
	c1.6,0,3-1,3.5-2.5c0.5-1.5,0.1-3.2-1.1-4.2L115.5,38V5.8c0-2.1-1.7-3.7-3.7-3.7h-15C94.7,2,93,3.7,93,5.8v13.7L72.9,2.9
	c-1.4-1.1-3.4-1.1-4.8,0L4.4,55.4C3.1,56.4,2.7,58,3.2,59.5z M70.5,10.6l23.9,19.7c1.1,0.9,2.7,1.1,4,0.5c1.3-0.6,2.1-1.9,2.1-3.4
	V9.5h7.5v30.2c0,1.1,0.5,2.2,1.4,2.9l14.4,11.9h-4.5c-2.1,0-3.7,1.7-3.7,3.7v56.2h-90V58.3c0-2.1-1.7-3.7-3.7-3.7h-4.5L70.5,10.6z"
	/>
<path class="st0" d="M59.3,69.5c2.1,0,3.7-1.7,3.7-3.7v-7.5c0-2.1-1.7-3.7-3.7-3.7s-3.7,1.7-3.7,3.7v7.5
	C55.5,67.8,57.2,69.5,59.3,69.5z"/>
<path class="st0" d="M81.8,69.5c2.1,0,3.7-1.7,3.7-3.7v-7.5c0-2.1-1.7-3.7-3.7-3.7S78,56.2,78,58.3v7.5C78,67.8,79.7,69.5,81.8,69.5
	z"/>
<path class="st0" d="M70.5,99.5c7.7,0,15.5-2.8,21.4-8.5c1.5-1.4,1.5-3.8,0.1-5.3c-1.4-1.5-3.8-1.5-5.3-0.1
	c-8.9,8.6-23.4,8.6-32.3,0c-1.5-1.4-3.9-1.4-5.3,0.1c-1.4,1.5-1.4,3.9,0.1,5.3C55,96.6,62.8,99.5,70.5,99.5z"/>
</svg>
