<?xml version="1.0" encoding="utf-8"?>
<!-- Generator: Adobe Illustrator 25.4.1, SVG Export Plug-In . SVG Version: 6.00 Build 0)  -->
<svg version="1.1" id="Layer_1" xmlns="http://www.w3.org/2000/svg" xmlns:xlink="http://www.w3.org/1999/xlink" x="0px" y="0px"
	 viewBox="0 0 189.7 40" style="enable-background:new 0 0 189.7 40;" xml:space="preserve">
<style type="text/css">
	.st0{fill:#010101;}
</style>
<g>
	<path d="M53.1,16.8v0.4h2.4v2.7h-2.4v8.5h-3.6v-8.5h-2.1v-2.7h2.1v-0.5c0-3.5,1.9-5.4,5.2-5.4h1.4v3.3h-0.7
		C53.7,14.6,53.1,15.5,53.1,16.8z"/>
	<path d="M66.5,17.3l-0.8,3.4c-0.7-0.4-1.2-0.4-1.6-0.4c-1.4,0-2.5,1.2-2.5,4.5v3.7H58V17.2h3.5v2.4c0.6-1.8,2-2.6,3.4-2.6
		C65.4,16.9,66,17,66.5,17.3z"/>
	<path d="M79.7,23.8h-8.2c0.3,1.1,1.3,1.7,2.6,1.7c1.1,0,2.1-0.4,2.8-1.1l1.8,2.3c-1.1,1.2-3,1.9-4.9,1.9c-3.5,0-6-2.4-6-5.8
		c0-3.6,2.8-5.9,6-5.9c3.2,0,5.9,2.2,5.9,5.6C79.7,22.9,79.7,23.3,79.7,23.8z M76.2,21.8c0-1.1-1-1.8-2.3-1.8
		c-1.1,0-2.1,0.5-2.4,1.8H76.2z"/>
	<path d="M93.8,22.4v6h-3.6v-5.6c0-1.7-1.1-2.4-1.9-2.4c-1,0-2.2,0.5-2.2,2.4v5.6h-3.6V17.2h3.6v2c0.4-1.6,2.2-2.3,3.2-2.3
		C92.3,16.9,93.8,18.9,93.8,22.4z"/>
	<path d="M96.6,24.7h3.4c0,0.6,0.4,1.2,1.4,1.2c0.7,0,1.4-0.3,1.4-0.8c0-0.4-0.3-0.5-1.1-0.7l-1.5-0.4c-3.3-0.9-3.4-2.8-3.4-3.7
		c0-1.7,1.9-3.3,4.6-3.3c2.1,0,4.7,1,4.6,3.8h-3.4c0-0.7-0.5-1.1-1.2-1.1c-0.6,0-1.1,0.2-1.1,0.7c0,0.4,0.4,0.7,1,0.8l1.9,0.5
		c2.8,0.8,3,2.5,3,3.3c0,2.5-2.6,3.6-4.8,3.6C99,28.6,96.6,27.2,96.6,24.7z"/>
	<path d="M108.8,26.5c0-1.2,1-2.1,2.2-2.1c1.2,0,2.2,0.9,2.2,2.1c0,1.2-1,2.1-2.2,2.1C109.8,28.6,108.8,27.7,108.8,26.5z"/>
	<path d="M127.6,22.4v6H124v-5.6c0-1.7-1.1-2.4-1.9-2.4c-1,0-2.2,0.5-2.2,2.4v5.6h-3.6V11.3h3.6V19c0.4-1.4,2.2-2.1,3.2-2.1
		C126.1,16.9,127.6,18.9,127.6,22.4z"/>
	<path d="M130.4,22.8c0-3.6,2.9-5.9,6.1-5.9c3.2,0,6.1,2.3,6.1,5.9c0,3.5-2.9,5.8-6.1,5.8C133.2,28.6,130.4,26.3,130.4,22.8z
		 M138.9,22.8c0-1.5-1.1-2.6-2.5-2.6c-1.4,0-2.5,1-2.5,2.6c0,1.5,1.1,2.5,2.5,2.5C137.8,25.3,138.9,24.3,138.9,22.8z"/>
	<path d="M156.5,17.2v11.2H153v-1.9c-0.4,1.6-2.2,2.2-3.2,2.2c-3,0-4.4-2-4.4-5.4v-6h3.6v5.6c0,1.7,1,2.4,1.9,2.4
		c0.9,0,2.2-0.5,2.2-2.4v-5.6H156.5z"/>
	<path d="M159.5,24.7h3.4c0,0.6,0.4,1.2,1.4,1.2c0.7,0,1.4-0.3,1.4-0.8c0-0.4-0.3-0.5-1.1-0.7L163,24c-3.3-0.9-3.4-2.8-3.4-3.7
		c0-1.7,1.9-3.3,4.6-3.3c2.1,0,4.7,1,4.6,3.8h-3.4c0-0.7-0.5-1.1-1.2-1.1c-0.6,0-1.1,0.2-1.1,0.7c0,0.4,0.4,0.7,1,0.8l1.9,0.5
		c2.8,0.8,3,2.5,3,3.3c0,2.5-2.6,3.6-4.8,3.6C161.8,28.6,159.5,27.2,159.5,24.7z"/>
	<path d="M183.3,23.8h-8.2c0.3,1.1,1.3,1.7,2.6,1.7c1.1,0,2.1-0.4,2.8-1.1l1.8,2.3c-1.1,1.2-3,1.9-4.9,1.9c-3.5,0-6-2.4-6-5.8
		c0-3.6,2.8-5.9,6-5.9c3.2,0,5.9,2.2,5.9,5.6C183.4,22.9,183.4,23.3,183.3,23.8z M179.9,21.8c0-1.1-1-1.8-2.3-1.8
		c-1.1,0-2.1,0.5-2.4,1.8H179.9z"/>
</g>
<g>
	<path class="st0" d="M3.3,19.4C3.4,19.7,3.8,20,4.2,20h2.9v14.5c0,0.5,0.4,1,1,1h25.1c0.5,0,1-0.4,1-1V20H37c0.4,0,0.8-0.3,0.9-0.6
		c0.1-0.4,0-0.8-0.3-1.1l-5.4-4.5V5.5c0-0.5-0.4-1-1-1h-3.9c-0.5,0-1,0.4-1,1V9l-5.2-4.3c-0.4-0.3-0.9-0.3-1.2,0L3.6,18.3
		C3.2,18.6,3.1,19,3.3,19.4z M20.6,6.7l6.2,5.1c0.3,0.2,0.7,0.3,1,0.1c0.3-0.2,0.5-0.5,0.5-0.9V6.5h1.9v7.8c0,0.3,0.1,0.6,0.4,0.7
		l3.7,3.1h-1.2c-0.5,0-1,0.4-1,1v14.5H9V19c0-0.5-0.4-1-1-1H6.9L20.6,6.7z"/>
	<path class="st0" d="M23.5,21.9c0.5,0,1-0.4,1-1V19c0-0.5-0.4-1-1-1s-1,0.4-1,1V21C22.6,21.5,23,21.9,23.5,21.9z"/>
	<path class="st0" d="M20.6,29.7c2,0,4-0.7,5.5-2.2c0.4-0.4,0.4-1,0-1.4s-1-0.4-1.4,0c-2.3,2.2-6,2.2-8.3,0c-0.4-0.4-1-0.4-1.4,0
		c-0.4,0.4-0.4,1,0,1.4C16.6,28.9,18.6,29.7,20.6,29.7z"/>
	<g>
		<g>
			<path d="M15.4,18.5v-1.3l4.6,1.9V20l-4.6,1.9v-1.3l2.7-1L15.4,18.5z"/>
		</g>
	</g>
</g>
</svg>
