<?xml version="1.0" encoding="utf-8"?>
<!-- Generator: Adobe Illustrator 26.0.2, SVG Export Plug-In . SVG Version: 6.00 Build 0)  -->
<svg version="1.1" id="Layer_1" xmlns="http://www.w3.org/2000/svg" xmlns:xlink="http://www.w3.org/1999/xlink" x="0px" y="0px"
	 viewBox="0 0 700 700" style="enable-background:new 0 0 700 700;" xml:space="preserve">
<path d="M78.8,201.2c4.8,0,8.8-3.9,8.8-8.8V26.2c0-4.8,3.9-8.7,8.8-8.8h183.9c5-6.6,10.9-12.5,17.6-17.5H96.2
	c-7,0-13.6,2.8-18.6,7.7C72.8,12.6,70,19.3,70,26.3v166.2C70,197.3,73.9,201.3,78.8,201.2L78.8,201.2z"/>
<path d="M603.8,0H402.3c6.6,5,12.6,10.9,17.6,17.5h183.9c4.8,0,8.7,3.9,8.8,8.8v166.2c0,4.8,3.9,8.8,8.8,8.8s8.8-3.9,8.8-8.8V26.2
	c0-7-2.8-13.6-7.7-18.6C617.4,2.8,610.7,0,603.8,0L603.8,0z"/>
<path d="M420,70c0-18.6-7.4-36.4-20.5-49.5C386.4,7.4,368.6,0,350,0s-36.4,7.4-49.5,20.5C287.4,33.6,280,51.4,280,70
	s7.4,36.4,20.5,49.5c13.1,13.1,30.9,20.5,49.5,20.5c18.6,0,36.4-7.4,49.5-20.5S420,88.6,420,70z M350,122.5
	c-13.9,0-27.3-5.5-37.1-15.4c-9.8-9.8-15.4-23.2-15.4-37.1s5.5-27.3,15.4-37.1c9.8-9.8,23.2-15.4,37.1-15.4s27.3,5.5,37.1,15.4
	c9.8,9.8,15.4,23.2,15.4,37.1c0,13.9-5.6,27.3-15.4,37.1S363.9,122.5,350,122.5z"/>
<path d="M266.9,266.9v26.2c0,4.8,3.9,8.8,8.8,8.8s8.8-3.9,8.8-8.8v-26.2c0-4.8-3.9-8.8-8.8-8.8S266.9,262,266.9,266.9z"/>
<path d="M415.6,266.9v26.2c0,4.8,3.9,8.8,8.8,8.8s8.8-3.9,8.8-8.8v-26.2c0-4.8-3.9-8.8-8.8-8.8S415.6,262,415.6,266.9z"/>
<path d="M125.7,397.9C95.4,407.1,70,431.7,70,467.6v83.7c0,4.8,3.9,8.8,8.8,8.8s8.8-3.9,8.8-8.8v-83.7c0-31.8,25.3-50.8,52.6-55.3
	C134.7,408.1,129.9,403.3,125.7,397.9z"/>
<path d="M250.5,397.9c-4.2,5.4-9,10.3-14.4,14.4c27.3,4.5,52.6,23.5,52.6,55.3v83.7c0,4.8,3.9,8.8,8.8,8.8s8.8-3.9,8.8-8.8v-83.7
	C306.3,431.7,280.9,407.1,250.5,397.9z"/>
<path d="M281.8,124.7c-35.8,7.8-67.5,35.5-67.5,77.3v73.8c6.2,2.2,12.1,5.1,17.5,8.7V202c0-38.5,33.3-60.1,66.1-61.9
	C292,135.7,286.5,130.5,281.8,124.7L281.8,124.7z"/>
<path d="M188.1,288.8c-16.2,0-31.8,6.5-43.3,17.9c-11.5,11.5-17.9,27.1-17.9,43.3s6.5,31.8,17.9,43.3c11.5,11.5,27.1,17.9,43.3,17.9
	s31.8-6.5,43.3-17.9c11.5-11.5,17.9-27.1,17.9-43.3c0-16.2-6.4-31.8-17.9-43.3S204.4,288.7,188.1,288.8L188.1,288.8z M188.1,393.8
	c-11.6,0-22.7-4.6-30.9-12.8c-8.2-8.2-12.8-19.3-12.8-30.9s4.6-22.7,12.8-30.9c8.2-8.2,19.3-12.8,30.9-12.8s22.7,4.6,30.9,12.8
	c8.2,8.2,12.8,19.3,12.8,30.9c0,11.6-4.6,22.7-12.8,30.9S199.7,393.7,188.1,393.8z"/>
<path d="M131.2,525c-4.8,0-8.8,3.9-8.8,8.8v17.5c0,4.8,3.9,8.8,8.8,8.8s8.8-3.9,8.8-8.8v-17.5C140,528.9,136.1,525,131.2,525z"/>
<path d="M245,525c-4.8,0-8.8,3.9-8.8,8.8v17.5c0,4.8,3.9,8.8,8.8,8.8s8.8-3.9,8.8-8.8v-17.5C253.8,528.9,249.8,525,245,525z"/>
<path d="M449.5,397.9c-30.4,9.2-55.7,33.8-55.7,69.7v83.7c0,4.8,3.9,8.8,8.8,8.8s8.8-3.9,8.8-8.8v-83.7c0-31.8,25.3-50.8,52.6-55.3
	C458.5,408.1,453.6,403.3,449.5,397.9z"/>
<path d="M574.3,397.9c-4.2,5.4-9,10.3-14.4,14.4c27.3,4.5,52.6,23.5,52.6,55.3v83.7c0,4.8,3.9,8.8,8.8,8.8s8.8-3.9,8.8-8.8v-83.7
	C630,431.7,604.6,407.1,574.3,397.9z"/>
<path d="M485.6,275.8V202c0-41.9-31.7-69.5-67.5-77.3v0c-4.7,5.8-10.1,11-16.1,15.4c32.8,1.8,66.1,23.3,66.1,61.9v82.5
	C473.6,280.9,479.4,278,485.6,275.8L485.6,275.8z"/>
<path d="M511.9,288.8c-16.2,0-31.8,6.5-43.3,17.9c-11.5,11.5-17.9,27.1-17.9,43.3s6.5,31.8,17.9,43.3c11.5,11.5,27.1,17.9,43.3,17.9
	c16.2,0,31.8-6.5,43.3-17.9c11.5-11.5,17.9-27.1,17.9-43.3c0-16.2-6.4-31.8-17.9-43.3S528.1,288.7,511.9,288.8z M511.9,393.8
	c-11.6,0-22.7-4.6-30.9-12.8c-8.2-8.2-12.8-19.3-12.8-30.9s4.6-22.7,12.8-30.9c8.2-8.2,19.3-12.8,30.9-12.8s22.7,4.6,30.9,12.8
	c8.2,8.2,12.8,19.3,12.8,30.9c0,11.6-4.6,22.7-12.8,30.9S523.5,393.7,511.9,393.8z"/>
<path d="M455,525c-4.8,0-8.8,3.9-8.8,8.8v17.5c0,4.8,3.9,8.8,8.8,8.8s8.8-3.9,8.8-8.8v-17.5C463.8,528.9,459.8,525,455,525z"/>
<path d="M568.8,525c-4.8,0-8.8,3.9-8.8,8.8v17.5c0,4.8,3.9,8.8,8.8,8.8s8.8-3.9,8.8-8.8v-17.5C577.5,528.9,573.6,525,568.8,525z"/>
<path d="M201.2,70h-70c-4.8,0-8.8,3.9-8.8,8.8s3.9,8.8,8.8,8.8h70c4.8,0,8.8-3.9,8.8-8.8S206.1,70,201.2,70z"/>
<path d="M498.8,87.5h70c4.8,0,8.8-3.9,8.8-8.8s-3.9-8.8-8.8-8.8h-70c-4.8,0-8.8,3.9-8.8,8.8S493.9,87.5,498.8,87.5z"/>
<path d="M201.2,105h-70c-4.8,0-8.8,3.9-8.8,8.8s3.9,8.8,8.8,8.8h70c4.8,0,8.8-3.9,8.8-8.8S206.1,105,201.2,105z"/>
<path d="M498.8,122.5h70c4.8,0,8.8-3.9,8.8-8.8s-3.9-8.8-8.8-8.8h-70c-4.8,0-8.8,3.9-8.8,8.8S493.9,122.5,498.8,122.5z"/>
</svg>
